<svg xmlns="http://www.w3.org/2000/svg" viewBox="0 0 533.2 458.55"><defs><style>.cls-1{fill:#fff;}.cls-1,.cls-2{stroke:#000;stroke-miterlimit:10;stroke-width:5px;}.cls-2{fill:#6bade4;}</style></defs><g id="Layer_2" data-name="Layer 2"><g id="Layer_1-2" data-name="Layer 1"><path class="cls-1" d="M528.74,112.91l-36.6,70.88c-4,7.82-13,10.5-20,6l-52-33.57V439.71a16.34,16.34,0,0,1-16.34,16.34H129.37A16.34,16.34,0,0,1,113,439.71V156.2L61,189.77c-7,4.52-15.92,1.84-20-6L4.46,112.91c-4-7.82-1.64-17.81,5.35-22.32L119,20.12h0l3.16-2a16.39,16.39,0,0,1,7.23-1.68h75.16V9.27A6.77,6.77,0,0,1,211.3,2.5H321.89a6.77,6.77,0,0,1,6.78,6.77v7.12h75.16a16.48,16.48,0,0,1,7.22,1.67h0l3.16,2h0L523.39,90.59C530.38,95.1,532.78,105.09,528.74,112.91Z"/><rect class="cls-2" x="353.71" y="31.59" width="45.36" height="411.37" rx="5.84"/><rect class="cls-2" x="134.14" y="31.59" width="45.36" height="411.37" rx="5.84"/><rect class="cls-2" x="243.92" y="31.59" width="45.36" height="82.51" rx="5.84"/><rect class="cls-2" x="243.92" y="360.44" width="45.36" height="82.51" rx="5.84"/></g></g></svg>